<svg viewBox="0 0 220 84" fill="none" xmlns="http://www.w3.org/2000/svg" width="440" height="168">
  <rect width="72" height="72" rx="20" fill="#E85438" x="0" y="6"></rect>
  <path d="M36 60C29 60 23 54.5 23 47c0-4.5 2-8 5-11 0 3.5 1.8 5.5 3.5 5.5-0.8-4.5 1.8-9 5.5-12.5 0 5.5 2.5 8 4.5 10 1.5-2.5 1.8-5.5 1-8.5 3.5 3.5 5 8 5 12.5 0 7.5-5 14.5-12.5 15z" fill="white"></path>
  <text x="88" y="46" font-family="&#39;DM Sans&#39;, sans-serif" font-weight="700" font-size="32" fill="#1C1512" letter-spacing="-1.5">bitfit</text>
  <text x="89" y="64" font-family="&#39;Noto Sans Georgian&#39;, sans-serif" font-weight="300" font-size="12" fill="#8C7E76" letter-spacing="3">ბიტფიტ</text>
</svg>