<svg viewBox="0 0 72 72" fill="none" xmlns="http://www.w3.org/2000/svg" width="144" height="144">
  <rect width="72" height="72" rx="20" fill="#E85438"></rect>
  <path d="M36 60C29 60 23 54.5 23 47c0-5 2.5-9 6-12 0 4 2 6 4 6-1-5 2-10 6-14 0 6 3 9 5 11 2-3 2-6 1-9 4 4 6 9 6 14 0 8.5-5.5 17-11 17z" fill="white"></path>
  <path d="M36 55c-3 0-6-2.5-6-5.5 0-3 1.5-5 4-6.5 0 2.5 1.5 4 3 3.5-0.5 2.5 1.5 4.5 3 4.5s3-2 2.5-4.5c1.5 1.5 2.5 3.5 2.5 5 0 3-4 3-9 3z" fill="rgba(255,255,255,0.5)"></path>
</svg>